<svg xmlns="http://www.w3.org/2000/svg" width="49" height="49" viewBox="0 0 49 49">
  <g id="Control" transform="translate(-131 -459)">
    <path id="_-settings-remote_90381" data-name="-settings-remote_90381" d="M18.236,11.7h-7.8a1.3,1.3,0,0,0-1.3,1.3V28.6a1.3,1.3,0,0,0,1.3,1.3h7.8a1.3,1.3,0,0,0,1.3-1.3V13A1.3,1.3,0,0,0,18.236,11.7Zm-3.9,7.8a2.6,2.6,0,1,1,2.6-2.6A2.608,2.608,0,0,1,14.335,19.5ZM7.9,7.866,9.733,9.7a6.529,6.529,0,0,1,9.205,0l1.833-1.833a9.1,9.1,0,0,0-12.872,0ZM14.335,0A14.257,14.257,0,0,0,4.22,4.187L6.053,6.02A11.708,11.708,0,0,1,22.6,6.033L24.438,4.2A14.161,14.161,0,0,0,14.335,0Z" transform="translate(141.279 468)" fill="#6988f5"/>
    <g id="Ellipse_3" data-name="Ellipse 3" transform="translate(131 459)" fill="none" stroke="#6988f5" stroke-width="1.5">
      <circle cx="24.5" cy="24.5" r="24.5" stroke="none"/>
      <circle cx="24.5" cy="24.5" r="23.75" fill="none"/>
    </g>
  </g>
</svg>
