<svg xmlns="http://www.w3.org/2000/svg" width="49" height="49" viewBox="0 0 49 49">
  <g id="Usermanagement" transform="translate(-131 -615)">
    <g id="Ellipse_9" data-name="Ellipse 9" transform="translate(131 615)" fill="none" stroke="#6988f5" stroke-width="1.5">
      <circle cx="24.5" cy="24.5" r="24.5" stroke="none"/>
      <circle cx="24.5" cy="24.5" r="23.75" fill="none"/>
    </g>
    <path id="manager-avatar-svgrepo-com" d="M31.851,8.644a1.763,1.763,0,0,0-.542-.536,9.021,9.021,0,0,0-.1-1.257c.05-.6.224-3.934-1.813-5.435A6.836,6.836,0,0,0,25.355,0a5.276,5.276,0,0,0-3.031.9,4.43,4.43,0,0,0-1.368,1.5A2.713,2.713,0,0,0,18.4,4.378a3.2,3.2,0,0,0,.223,3.046c-.022.265-.029.5-.03.684a1.763,1.763,0,0,0-.542.536,2.772,2.772,0,0,0-.186,2.258c.456,1.743,1.519,2.126,2.087,2.2a11.487,11.487,0,0,0,1.887,2.845,3.758,3.758,0,0,0,1.187.719,5.233,5.233,0,0,0,3.848,0,3.758,3.758,0,0,0,1.187-.719,11.486,11.486,0,0,0,1.887-2.845c.567-.077,1.631-.461,2.087-2.2A2.772,2.772,0,0,0,31.851,8.644Zm-1.11,1.919c-.278,1.062-.774,1.221-1.046,1.221l-.042,0a.629.629,0,0,0-.732.376,11.774,11.774,0,0,1-1.771,2.813,2.44,2.44,0,0,1-.767.453,3.909,3.909,0,0,1-2.86,0,2.44,2.44,0,0,1-.767-.453,11.775,11.775,0,0,1-1.771-2.813.642.642,0,0,0-.578-.4.628.628,0,0,0-.154.02l-.042,0c-.271,0-.768-.159-1.046-1.221a1.661,1.661,0,0,1,0-1.174A.43.43,0,0,1,19.4,9.2a.629.629,0,0,0,.546-.716,6.261,6.261,0,0,1,.006-.794A5.441,5.441,0,0,0,21.77,6.427a4.034,4.034,0,0,0,.712-1.143,8.442,8.442,0,0,0,1.925,1.169A21.938,21.938,0,0,0,29.939,7.5a6.632,6.632,0,0,1,.02.982A.628.628,0,0,0,30.5,9.2a.431.431,0,0,1,.233.194A1.66,1.66,0,0,1,30.741,10.563Zm4.294,8.944-5.855-2.342a.669.669,0,0,0-.878.394l-1.472,4.069-.291-.838L27,19.657a.67.67,0,0,0-.62-.923h-2.86a.67.67,0,0,0-.62.923l.464,1.133-.291.838L21.6,17.559a.669.669,0,0,0-.878-.394l-5.855,2.342a4.686,4.686,0,0,0-2.96,4.372V28.6a.67.67,0,0,0,.67.67H37.325a.67.67,0,0,0,.67-.67V23.878A4.686,4.686,0,0,0,35.035,19.507Zm-.2,6.3a.67.67,0,0,1-.67.67h-4.5a.67.67,0,0,1-.67-.67V23.722a.67.67,0,0,1,.67-.67h4.5a.67.67,0,0,1,.67.67V25.81Z" transform="translate(130.089 625)" fill="#6988f5"/>
  </g>
</svg>
