<svg xmlns="http://www.w3.org/2000/svg" width="60" height="60" viewBox="0 0 76 76">
  <g id="upload" transform="translate(0.034 0.516)">
    <circle id="Ellipse_11" data-name="Ellipse 11" cx="38" cy="38" r="38" transform="translate(-0.034 -0.516)" fill="#a797f0"/>
    <path id="_1608710_upload_icon" data-name="1608710_upload_icon" d="M92.366,95.2a1.438,1.438,0,1,0-.421,1A1.363,1.363,0,0,0,92.366,95.2Zm5.673,0a1.438,1.438,0,1,0-.421,1A1.363,1.363,0,0,0,98.039,95.2Zm2.837-4.964V97.33a2.119,2.119,0,0,1-2.127,2.127H66.127A2.119,2.119,0,0,1,64,97.33V90.238a2.119,2.119,0,0,1,2.127-2.127H75.59a4.375,4.375,0,0,0,1.562,2.039,4.065,4.065,0,0,0,2.449.8h5.673a4.065,4.065,0,0,0,2.449-.8,4.375,4.375,0,0,0,1.562-2.039h9.463a2.119,2.119,0,0,1,2.127,2.127Zm-7.2-14.36a1.325,1.325,0,0,1-1.307.886H86.693v9.928a1.438,1.438,0,0,1-1.418,1.418H79.6a1.438,1.438,0,0,1-1.418-1.418V76.765H72.51a1.325,1.325,0,0,1-1.307-.886,1.26,1.26,0,0,1,.31-1.529l9.928-9.928a1.391,1.391,0,0,1,1.994,0l9.928,9.928A1.26,1.26,0,0,1,93.673,75.878Z" transform="translate(-44.033 -44.516)" fill="#fff"/>
  </g>
</svg>
