<svg xmlns="http://www.w3.org/2000/svg" width="49" height="49" viewBox="0 0 49 49">
  <g id="Settings" transform="translate(-311 -459)">
    <path id="Path_315" data-name="Path 315" d="M29.381,11.654a.8.8,0,0,0-.079-.6L25.62,4.683a.8.8,0,0,0-1.086-.29L21.447,6.175A10.722,10.722,0,0,0,19.63,5.126V1.559a.794.794,0,0,0-.795-.794H11.478a.794.794,0,0,0-.794.794V5.127a10.817,10.817,0,0,0-1.715.979L5.9,4.286a.795.795,0,0,0-1.088.279L1.06,10.892a.794.794,0,0,0,.279,1.088L4.41,13.8a9.962,9.962,0,0,0-.073,1.172,9.75,9.75,0,0,0,.06,1.05L1.3,17.808a.795.795,0,0,0-.291,1.085l3.68,6.368a.794.794,0,0,0,1.086.29l3.088-1.783a10.773,10.773,0,0,0,1.816,1.049v3.567a.793.793,0,0,0,.794.794h7.357a.794.794,0,0,0,.795-.794V24.818a10.76,10.76,0,0,0,1.714-.98l3.072,1.82a.8.8,0,0,0,1.089-.279l3.75-6.327a.794.794,0,0,0-.279-1.088l-3.069-1.819a9.351,9.351,0,0,0,.013-2.223l3.092-1.785A.8.8,0,0,0,29.381,11.654Zm-9.969,3.318a4.255,4.255,0,1,1-4.256-4.254A4.26,4.26,0,0,1,19.412,14.971Z" transform="translate(320.092 468.235)" fill="#6988f5"/>
    <g id="Ellipse_4" data-name="Ellipse 4" transform="translate(311 459)" fill="none" stroke="#6988f5" stroke-width="1.5">
      <circle cx="24.5" cy="24.5" r="24.5" stroke="none"/>
      <circle cx="24.5" cy="24.5" r="23.75" fill="none"/>
    </g>
  </g>
</svg>
