<svg xmlns="http://www.w3.org/2000/svg" width="49" height="49" viewBox="0 0 49 49">
  <g id="Taskcenter" transform="translate(-131 -537)">
    <g id="Ellipse_6" data-name="Ellipse 6" transform="translate(131 537)" fill="none" stroke="#6988f5" stroke-width="1.5">
      <circle cx="24.5" cy="24.5" r="24.5" stroke="none"/>
      <circle cx="24.5" cy="24.5" r="23.75" fill="none"/>
    </g>
    <path id="_8541636_clipboard_list_icon" data-name="8541636_clipboard_list_icon" d="M20.948,3.99H15.96a3.99,3.99,0,1,0-7.98,0H2.993A2.993,2.993,0,0,0,0,6.983V28.928A2.993,2.993,0,0,0,2.993,31.92H20.948a2.993,2.993,0,0,0,2.993-2.993V6.983A2.993,2.993,0,0,0,20.948,3.99ZM5.985,26.434a1.5,1.5,0,1,1,1.5-1.5A1.493,1.493,0,0,1,5.985,26.434Zm0-5.985a1.5,1.5,0,1,1,1.5-1.5A1.493,1.493,0,0,1,5.985,20.449Zm0-5.985a1.5,1.5,0,1,1,1.5-1.5A1.493,1.493,0,0,1,5.985,14.464ZM11.97,2.494a1.5,1.5,0,1,1-1.5,1.5A1.493,1.493,0,0,1,11.97,2.494Zm7.98,22.943a.5.5,0,0,1-.5.5H10.474a.5.5,0,0,1-.5-.5v-1a.5.5,0,0,1,.5-.5h8.978a.5.5,0,0,1,.5.5Zm0-5.985a.5.5,0,0,1-.5.5H10.474a.5.5,0,0,1-.5-.5v-1a.5.5,0,0,1,.5-.5h8.978a.5.5,0,0,1,.5.5Zm0-5.985a.5.5,0,0,1-.5.5H10.474a.5.5,0,0,1-.5-.5v-1a.5.5,0,0,1,.5-.5h8.978a.5.5,0,0,1,.5.5Z" transform="translate(144 546)" fill="#6988f5"/>
  </g>
</svg>
